<?xml version="1.0" encoding="UTF-8" standalone="no"?>
<!-- Created with Inkscape (http://www.inkscape.org/) -->

<svg
   viewBox="0 0 165 180"
   version="1.1"
   id="svg1"
   inkscape:version="1.3.2 (091e20e, 2023-11-25, custom)"
   sodipodi:docname="Board (5x5).svg"
   xmlns:inkscape="http://www.inkscape.org/namespaces/inkscape"
   xmlns:sodipodi="http://sodipodi.sourceforge.net/DTD/sodipodi-0.dtd"
   xmlns="http://www.w3.org/2000/svg"
   xmlns:svg="http://www.w3.org/2000/svg">
  <sodipodi:namedview
     id="namedview1"
     pagecolor="#ffffff"
     bordercolor="#111111"
     borderopacity="1"
     inkscape:showpageshadow="0"
     inkscape:pageopacity="0"
     inkscape:pagecheckerboard="1"
     inkscape:deskcolor="#d1d1d1"
     inkscape:document-units="mm"
     showgrid="true"
     inkscape:zoom="0.80697917"
     inkscape:cx="311.65612"
     inkscape:cy="340.15748"
     inkscape:window-width="1292"
     inkscape:window-height="745"
     inkscape:window-x="-8"
     inkscape:window-y="-8"
     inkscape:window-maximized="1"
     inkscape:current-layer="layer1" />
  <defs
     id="defs1" />
  <g
     inkscape:label="Layer 1"
     inkscape:groupmode="layer"
     id="layer1">
    <rect
       style="fill:#ffce9e;stroke-width:3;stroke-linecap:round;stroke-linejoin:round;fill-opacity:1"
       id="rect13"
       width="165"
       height="180"
       x="0"
       y="0" />
    <path
       id="rect12"
       style="fill:#d18b47;stroke-width:3;stroke-linecap:round;stroke-linejoin:round"
       d="m 99.000008,144 h 33.000002 v 36 H 99.000008 Z M 33,144 h 33 v 36 H 33 Z m 99,-36 h 33 v 36 h -33 z m -66,0 h 33 v 36 H 66 Z m -66,0 h 33 v 36 H 0 Z M 99.000008,72 h 33.000002 v 36 H 99.000008 Z M 33,72 h 33 v 36 H 33 Z m 99,-36 h 33 V 72 H 132 Z M 66,36 H 99 V 72 H 66 Z M 0,36 H 33 V 72 H 0 Z M 99.000008,0 H 132.00001 V 36 H 99.000008 Z M 33,0 H 66 V 36 H 33 Z" />
  </g>
</svg>
