<?xml version="1.0" encoding="UTF-8" standalone="no"?>
<svg
   version="1.1"
   viewBox="0 0 45 45"
   id="svg13"
   sodipodi:docname="Gin.svg"
   xml:space="preserve"
   inkscape:version="1.3.2 (091e20e, 2023-11-25, custom)"
   xmlns:inkscape="http://www.inkscape.org/namespaces/inkscape"
   xmlns:sodipodi="http://sodipodi.sourceforge.net/DTD/sodipodi-0.dtd"
   xmlns="http://www.w3.org/2000/svg"
   xmlns:svg="http://www.w3.org/2000/svg"><defs
     id="defs13" /><sodipodi:namedview
     id="namedview13"
     pagecolor="#ffffff"
     bordercolor="#111111"
     borderopacity="1"
     inkscape:showpageshadow="0"
     inkscape:pageopacity="0"
     inkscape:pagecheckerboard="1"
     inkscape:deskcolor="#d1d1d1"
     inkscape:zoom="10.622222"
     inkscape:cx="22.5"
     inkscape:cy="22.452929"
     inkscape:window-width="1292"
     inkscape:window-height="745"
     inkscape:window-x="-8"
     inkscape:window-y="-8"
     inkscape:window-maximized="1"
     inkscape:current-layer="svg13" /><g
     style="fill:#000000;stroke:#000000;stroke-width:1.5; stroke-linecap:round;stroke-linejoin:round"
     id="g13"><path
       d="M 9,26 C 17.5,24.5 30,24.5 36,26 L 38.5,13.5 L 31,25 L 30.7,10.9 L 25.5,24.5 L 22.5,10 L 19.5,24.5 L 14.3,10.9 L 14,25 L 6.5,13.5 L 9,26 z"
       style="stroke-linecap:butt;fill:#000000"
       id="path1" /><path
       d="m 9,26 c 0,2 1.5,2 2.5,4 1,1.5 1,1 0.5,3.5 -1.5,1 -1,2.5 -1,2.5 -1.5,1.5 0,2.5 0,2.5 6.5,1 16.5,1 23,0 0,0 1.5,-1 0,-2.5 0,0 0.5,-1.5 -1,-2.5 -0.5,-2.5 -0.5,-2 0.5,-3.5 1,-2 2.5,-2 2.5,-4 -8.5,-1.5 -18.5,-1.5 -27,0 z"
       id="path2" /><path
       d="M 11.5,30 C 15,29 30,29 33.5,30"
       id="path3" /><path
       d="m 12,33.5 c 6,-1 15,-1 21,0"
       id="path4" /><circle
       cx="6"
       cy="12"
       r="2"
       id="circle4" /><circle
       cx="14"
       cy="9"
       r="2"
       id="circle5" /><circle
       cx="31"
       cy="9"
       r="2"
       id="circle7" /><circle
       cx="39"
       cy="12"
       r="2"
       id="circle8" /><path
       d="M 11,38.5 A 35,35 1 0 0 34,38.5"
       style="fill:none; stroke:#000000;stroke-linecap:butt;"
       id="path8" /><g
       style="fill:none; stroke:#ffffff;"
       id="g12"><path
         d="M 11,29 A 35,35 1 0 1 34,29"
         id="path9" /><path
         d="M 12.5,31.5 L 32.5,31.5"
         id="path10" /><path
         d="M 11.5,34.5 A 35,35 1 0 0 33.5,34.5"
         id="path11" /><path
         d="M 10.5,37.5 A 35,35 1 0 0 34.5,37.5"
         id="path12" /></g></g><path
     id="path1-2"
     style="display:inline;fill:#000000;fill-opacity:1;fill-rule:evenodd;stroke:none;stroke-width:0.0288636;stroke-linecap:round;stroke-linejoin:round"
     d="m 27.108458,1.78 a 4.6499954,4.6499954 0 0 1 0.04152,0.6110008 4.6499954,4.6499954 0 0 1 -4.650006,4.6500064 4.6499954,4.6499954 0 0 1 -4.649975,-4.6500064 4.6499954,4.6499954 0 0 1 0.0431,-0.6027223 A 5.999994,5.999994 0 0 0 16.5,5.6207228 a 5.999994,5.999994 0 0 0 6,5.9999992 5.999994,5.999994 0 0 0 6,-5.9999992 A 5.999994,5.999994 0 0 0 27.108458,1.78 Z" /></svg>
