<?xml version="1.0" encoding="UTF-8" standalone="no"?>
<svg
   version="1.1"
   viewBox="0 0 45 45"
   id="svg13"
   sodipodi:docname="Kin.svg"
   xml:space="preserve"
   inkscape:version="1.3.2 (091e20e, 2023-11-25, custom)"
   xmlns:inkscape="http://www.inkscape.org/namespaces/inkscape"
   xmlns:sodipodi="http://sodipodi.sourceforge.net/DTD/sodipodi-0.dtd"
   xmlns="http://www.w3.org/2000/svg"
   xmlns:svg="http://www.w3.org/2000/svg"><defs
     id="defs13" /><sodipodi:namedview
     id="namedview13"
     pagecolor="#ffffff"
     bordercolor="#111111"
     borderopacity="1"
     inkscape:showpageshadow="0"
     inkscape:pageopacity="0"
     inkscape:pagecheckerboard="true"
     inkscape:deskcolor="#d1d1d1"
     inkscape:zoom="12.2"
     inkscape:cx="22.5"
     inkscape:cy="22.5"
     inkscape:window-width="1292"
     inkscape:window-height="745"
     inkscape:window-x="-8"
     inkscape:window-y="-8"
     inkscape:window-maximized="1"
     inkscape:current-layer="g13" /><g
     style="display:inline;fill:#000000;stroke:#000000;stroke-width:1.5;stroke-linecap:round;stroke-linejoin:round"
     id="g13"><path
       d="m 9,26 c 8.5,-1.5 21,-1.5 27,0 L 38.5,13.5 31,25 30.7,10.9 25.5,24.5 22.5,10 19.5,24.5 14.3,10.9 14,25 6.5,13.5 Z"
       style="display:inline;fill:#000000;stroke-linecap:butt"
       id="path1" /><path
       d="m 9,26 c 0,2 1.5,2 2.5,4 1,1.5 1,1 0.5,3.5 -1.5,1 -1,2.5 -1,2.5 -1.5,1.5 0,2.5 0,2.5 6.5,1 16.5,1 23,0 0,0 1.5,-1 0,-2.5 0,0 0.5,-1.5 -1,-2.5 -0.5,-2.5 -0.5,-2 0.5,-3.5 1,-2 2.5,-2 2.5,-4 -8.5,-1.5 -18.5,-1.5 -27,0 z"
       id="path2" /><path
       d="M 11.5,30 C 15,29 30,29 33.5,30"
       id="path3" /><path
       d="m 12,33.5 c 6,-1 15,-1 21,0"
       id="path4" /><circle
       cx="6"
       cy="12"
       r="2"
       id="circle4" /><circle
       cx="14"
       cy="9"
       r="2"
       id="circle5" /><circle
       cx="31"
       cy="9"
       r="2"
       id="circle7" /><circle
       cx="39"
       cy="12"
       r="2"
       id="circle8" /><path
       d="m 11,38.5 a 35,35 1 0 0 23,0"
       style="display:inline;fill:none;stroke:#000000;stroke-linecap:butt"
       id="path8" /><g
       style="display:inline;fill:none;stroke:#ffffff"
       id="g12"><path
         d="m 11,29 a 35,35 1 0 1 23,0"
         id="path9" /><path
         d="m 12.5,31.5 h 20"
         id="path10" /><path
         d="m 11.5,34.5 a 35,35 1 0 0 22,0"
         id="path11" /><path
         d="m 10.5,37.5 a 35,35 1 0 0 24,0"
         id="path12" /></g><circle
       style="opacity:1;fill:#ffffff;fill-opacity:1;fill-rule:evenodd;stroke:none;stroke-width:8.03149;stroke-linecap:round;stroke-linejoin:round"
       id="path7"
       cx="22.499992"
       cy="7.992671"
       r="4.25" /><path
       id="path1-8"
       style="display:inline;fill:#00000f;stroke:none;stroke-width:2.5;stroke-linecap:round;stroke-linejoin:round;opacity:1;fill-rule:evenodd"
       transform="matrix(0.05730919,0.00160079,-0.00160079,0.05730934,18.333592,1.6397451)"
       d="M 72.759558,3.3336233 54.196732,36.67155 a 75.31063,75.31063 0 0 1 19.4387,-3.201242 75.31063,75.31063 0 0 1 19.516126,2.010897 z M 11.37765,25.189684 15.948655,63.163887 A 75.31063,75.31063 0 0 1 46.977681,39.326984 Z m 123.9222,-3.46145 -34.55389,15.994629 a 75.31063,75.31063 0 0 1 32.13813,21.970249 z m 2.42941,44.270736 a 75.31063,75.31063 0 0 1 13.05404,36.64668 L 175.08202,73.339393 Z M 11.458291,69.560107 -25.426479,78.974166 0.61124361,107.0448 A 75.31063,75.31063 0 0 1 11.458291,69.560107 Z M 150.86396,110.41373 a 75.31063,75.31063 0 0 1 -10.84609,37.51875 l 36.88382,-9.44812 z M 0.82336325,114.63881 -23.606816,144.11914 13.7469,151.49361 A 75.31063,75.31063 0 0 1 0.82336325,114.63881 Z M 135.52655,154.29464 a 75.31063,75.31063 0 0 1 -31.02902,23.83691 l 35.60003,14.1373 z M 18.620412,157.5942 16.17631,195.76435 50.931668,179.66185 A 75.31063,75.31063 0 0 1 18.620412,157.5942 Z" /><circle
       style="display:inline;opacity:1;fill:#00000f;fill-rule:evenodd;stroke:none;stroke-width:178.75;stroke-linecap:round;stroke-linejoin:round"
       id="path2-1"
       cx="105"
       cy="148.5"
       r="71.5"
       transform="matrix(0.0560737,0,0,0.05607384,16.612254,-0.33429402)" /></g></svg>
