<?xml version="1.0" encoding="UTF-8" standalone="no"?>
<svg
   version="1.1"
   viewBox="0 0 45 45"
   id="svg13"
   sodipodi:docname="Narigin.svg"
   xml:space="preserve"
   inkscape:version="1.3.2 (091e20e, 2023-11-25, custom)"
   xmlns:inkscape="http://www.inkscape.org/namespaces/inkscape"
   xmlns:sodipodi="http://sodipodi.sourceforge.net/DTD/sodipodi-0.dtd"
   xmlns="http://www.w3.org/2000/svg"
   xmlns:svg="http://www.w3.org/2000/svg"><defs
     id="defs13" /><sodipodi:namedview
     id="namedview13"
     pagecolor="#ffffff"
     bordercolor="#111111"
     borderopacity="1"
     inkscape:showpageshadow="0"
     inkscape:pageopacity="0"
     inkscape:pagecheckerboard="1"
     inkscape:deskcolor="#d1d1d1"
     inkscape:zoom="12.2"
     inkscape:cx="22.5"
     inkscape:cy="22.418033"
     inkscape:window-width="1292"
     inkscape:window-height="745"
     inkscape:window-x="-8"
     inkscape:window-y="-8"
     inkscape:window-maximized="1"
     inkscape:current-layer="svg13" /><g
     style="fill:#000000;stroke:#ff0000;stroke-width:1.5;stroke-linecap:round;stroke-linejoin:round;stroke-opacity:1"
     id="g13"><path
       id="path1-2-3"
       style="fill:#ff000f;stroke:#ff0000;stroke-width:4.36276;stroke-linecap:round;stroke-linejoin:round;stroke-opacity:1;display:inline;fill-opacity:1;fill-rule:evenodd;stroke-dasharray:none;paint-order:markers fill stroke"
       d="m 82.344664,248.28771 22.684616,38.12639 22.65565,-38.12639 a 87.469232,87.469154 0 0 1 -22.68462,3.09994 87.469232,87.469154 0 0 1 -22.655646,-3.09994 z"
       transform="matrix(0.06741558,0,0,0.06741558,15.421343,-5.5607255)" /><path
       id="path12"
       style="display:inline;opacity:1;fill:#00000f;fill-rule:evenodd;stroke:#ff0000;stroke-width:0.55;stroke-linecap:round;stroke-linejoin:round;stroke-dasharray:none;stroke-opacity:1;paint-order:normal"
       d="m 27.445312,2.2812502 a 5.8967888,5.8967836 0 0 1 0.94336,2.8964841 l 1.96289,-2.2402346 z M 17.554687,2.2832082 14.646484,2.9414115 16.625,5.1933641 A 5.8967888,5.8967836 0 0 1 17.554687,2.2832053 Z M 28.375,5.7871112 a 5.8967888,5.8967836 0 0 1 -0.929688,2.9121096 l 2.908203,-0.6582032 z m -11.75,0.00196 -1.976563,2.2539063 2.908203,0.6582033 A 5.8967888,5.8967836 0 0 1 16.625,5.7890622 Z m 10.455078,3.3984375 a 5.8967888,5.8967836 0 0 1 -2.482421,1.7988253 l 2.755858,1.183594 z m -9.158204,0.00196 -0.273436,2.9824223 2.755859,-1.185547 A 5.8967888,5.8967836 0 0 1 17.921874,9.1894527 Z" /><path
       d="m 9,26 c 8.5,-1.5 21,-1.5 27,0 L 38.5,13.5 31,25 30.7,10.9 25.5,24.5 22.5,10 19.5,24.5 14.3,10.9 14,25 6.5,13.5 Z"
       style="display:inline;fill:#000000;stroke:#ff0000;stroke-linecap:butt;stroke-opacity:1"
       id="path1" /><path
       d="m 9,26 c 0,2 1.5,2 2.5,4 1,1.5 1,1 0.5,3.5 -1.5,1 -1,2.5 -1,2.5 -1.5,1.5 0,2.5 0,2.5 6.5,1 16.5,1 23,0 0,0 1.5,-1 0,-2.5 0,0 0.5,-1.5 -1,-2.5 -0.5,-2.5 -0.5,-2 0.5,-3.5 1,-2 2.5,-2 2.5,-4 -8.5,-1.5 -18.5,-1.5 -27,0 z"
       id="path2"
       style="stroke:#ff0000;stroke-opacity:1" /><path
       d="M 11.5,30 C 15,29 30,29 33.5,30"
       id="path3"
       style="stroke:#ff0000;stroke-opacity:1" /><path
       d="m 12,33.5 c 6,-1 15,-1 21,0"
       id="path4"
       style="stroke:#ff0000;stroke-opacity:1" /><circle
       cx="7"
       cy="14.5"
       r="2"
       id="circle4"
       style="stroke:#ff0000;stroke-opacity:1" /><circle
       cx="14.4"
       cy="11.5"
       r="2"
       id="circle5"
       style="display:inline;fill:#000000;stroke:#ff0000;stroke-width:1.5;stroke-linecap:round;stroke-linejoin:round;stroke-opacity:1" /><circle
       cx="30.6"
       cy="11.5"
       r="2"
       id="circle7"
       style="display:inline;fill:#000000;stroke:#ff0000;stroke-width:1.5;stroke-linecap:round;stroke-linejoin:round;stroke-opacity:1" /><circle
       cx="38"
       cy="14.5"
       r="2"
       id="circle8"
       style="display:inline;stroke:#ff0000;stroke-opacity:1" /><path
       d="m 11,38.5 a 35,35 1 0 0 23,0"
       style="display:inline;fill:none;stroke:#ff0000;stroke-linecap:butt;stroke-opacity:1"
       id="path8" /><path
       id="path1-8"
       style="display:inline;opacity:1;fill:#000000;fill-opacity:1;fill-rule:evenodd;stroke:#ff0000;stroke-width:0.982;stroke-linecap:round;stroke-linejoin:round;stroke-dasharray:none;stroke-opacity:1"
       d="m 26.802565,1.9066525 a 4.3413397,4.3413397 0 0 1 0.03876,0.5704439 4.3413397,4.3413397 0 0 1 -4.34135,4.3413501 A 4.3413397,4.3413397 0 0 1 18.158652,2.4770964 4.3413397,4.3413397 0 0 1 18.198882,1.9143816 5.6017286,5.6017286 0 0 0 16.898266,5.4924372 5.6017286,5.6017286 0 0 0 22.5,11.094172 5.6017286,5.6017286 0 0 0 28.101734,5.4924372 5.6017286,5.6017286 0 0 0 26.802565,1.9066525 Z" /></g></svg>
