<?xml version="1.0" encoding="UTF-8" standalone="no"?>
<svg
   version="1.1"
   viewBox="0 0 45 45"
   id="svg1"
   sodipodi:docname="Tokin.svg"
   inkscape:version="1.3.2 (091e20e, 2023-11-25, custom)"
   xmlns:inkscape="http://www.inkscape.org/namespaces/inkscape"
   xmlns:sodipodi="http://sodipodi.sourceforge.net/DTD/sodipodi-0.dtd"
   xmlns="http://www.w3.org/2000/svg"
   xmlns:svg="http://www.w3.org/2000/svg">
  <defs
     id="defs1" />
  <sodipodi:namedview
     id="namedview1"
     pagecolor="#ffffff"
     bordercolor="#111111"
     borderopacity="1"
     inkscape:showpageshadow="0"
     inkscape:pageopacity="0"
     inkscape:pagecheckerboard="1"
     inkscape:deskcolor="#d1d1d1"
     inkscape:zoom="17.253405"
     inkscape:cx="23.241788"
     inkscape:cy="17.358892"
     inkscape:window-width="1292"
     inkscape:window-height="745"
     inkscape:window-x="-8"
     inkscape:window-y="-8"
     inkscape:window-maximized="1"
     inkscape:current-layer="svg1" />
  <path
     id="path1-0"
     style="display:inline;fill:#000000;fill-opacity:1;fill-rule:evenodd;stroke-width:2;stroke-linecap:round;stroke-linejoin:round;stroke:#ff0000;stroke-opacity:1;stroke-dasharray:none;paint-order:stroke fill markers"
     d="M 22.498047,6.4472656 21.283203,8.4921875 A 4.6931251,4.6928709 0 0 1 22.5,8.3242188 4.6931251,4.6928709 0 0 1 23.710938,8.4863281 Z m 3.863281,1.2539063 -2.179687,0.9375 a 4.6931251,4.6928709 0 0 1 1.96289,1.4238281 z m -7.724609,0.00195 0.21875,2.373047 a 4.6931251,4.6928709 0 0 1 1.974609,-1.4316408 z m 7.798828,2.759766 a 4.6931251,4.6928709 0 0 1 0.75,2.30664 L 28.75,10.986328 Z m -7.871094,0.002 -2.314453,0.523437 1.574219,1.792969 a 4.6931251,4.6928709 0 0 1 0.740234,-2.316406 z m 8.611328,2.789062 a 4.6931251,4.6928709 0 0 1 -0.740234,2.316406 L 28.75,15.046875 Z m -9.351562,0.002 -1.574219,1.792969 2.314453,0.523438 a 4.6931251,4.6928709 0 0 1 -0.740234,-2.316407 z" />
  <path
     d="m 22.5,9 c -2.21,0 -4,1.79 -4,4 0,0.89 0.29,1.71 0.78,2.38 C 17.33,16.5 16,18.59 16,21 c 0,2.03 0.94,3.84 2.41,5.03 C 15.41,27.09 11,31.58 11,39.5 H 34 C 34,31.58 29.59,27.09 26.59,26.03 28.06,24.84 29,23.03 29,21 29,18.59 27.67,16.5 25.72,15.38 26.21,14.71 26.5,13.89 26.5,13 c 0,-2.21 -1.79,-4 -4,-4 z"
     style="display:inline;opacity:1;fill:#000000;fill-opacity:1;fill-rule:nonzero;stroke:#ff0000;stroke-width:1.5;stroke-linecap:round;stroke-linejoin:miter;stroke-miterlimit:4;stroke-dasharray:none;stroke-opacity:1"
     id="path1" />
</svg>
