<?xml version="1.0" encoding="UTF-8" standalone="no"?>
<svg
   version="1.1"
   viewBox="0 0 45 45"
   id="svg8"
   sodipodi:docname="Gin.svg"
   inkscape:version="1.3.2 (091e20e, 2023-11-25, custom)"
   xmlns:inkscape="http://www.inkscape.org/namespaces/inkscape"
   xmlns:sodipodi="http://sodipodi.sourceforge.net/DTD/sodipodi-0.dtd"
   xmlns="http://www.w3.org/2000/svg"
   xmlns:svg="http://www.w3.org/2000/svg">
  <defs
     id="defs8" />
  <sodipodi:namedview
     id="namedview8"
     pagecolor="#ffffff"
     bordercolor="#111111"
     borderopacity="1"
     inkscape:showpageshadow="0"
     inkscape:pageopacity="0"
     inkscape:pagecheckerboard="1"
     inkscape:deskcolor="#d1d1d1"
     inkscape:zoom="10.622222"
     inkscape:cx="22.5"
     inkscape:cy="22.452929"
     inkscape:window-width="1292"
     inkscape:window-height="745"
     inkscape:window-x="-8"
     inkscape:window-y="-8"
     inkscape:window-maximized="1"
     inkscape:current-layer="svg8" />
  <g
     style="fill:#ffffff;stroke:#000000;stroke-width:1.5;stroke-linejoin:round"
     id="g8">
    <path
       d="m 9,26 c 8.5,-1.5 21,-1.5 27,0 L 38.5,13.5 31,25 30.7,10.9 25.5,24.5 22.5,10 19.5,24.5 14.3,10.9 14,25 6.5,13.5 Z"
       id="path1" />
    <path
       d="m 9,26 c 0,2 1.5,2 2.5,4 1,1.5 1,1 0.5,3.5 -1.5,1 -1,2.5 -1,2.5 -1.5,1.5 0,2.5 0,2.5 6.5,1 16.5,1 23,0 0,0 1.5,-1 0,-2.5 0,0 0.5,-1.5 -1,-2.5 -0.5,-2.5 -0.5,-2 0.5,-3.5 1,-2 2.5,-2 2.5,-4 -8.5,-1.5 -18.5,-1.5 -27,0 z"
       id="path2" />
    <path
       d="M 11.5,30 C 15,29 30,29 33.5,30"
       style="fill:none"
       id="path3" />
    <path
       d="m 12,33.5 c 6,-1 15,-1 21,0"
       style="fill:none"
       id="path4" />
    <circle
       cx="6"
       cy="12"
       r="2"
       id="circle4" />
    <circle
       cx="14"
       cy="9"
       r="2"
       id="circle5" />
    <circle
       cx="31"
       cy="9"
       r="2"
       id="circle7" />
    <circle
       cx="39"
       cy="12"
       r="2"
       id="circle8" />
  </g>
  <path
     id="path1-1"
     style="display:inline;fill:#ffffff;fill-opacity:1;fill-rule:evenodd;stroke:#000000;stroke-width:1.03597;stroke-linecap:round;stroke-linejoin:round;stroke-dasharray:none;stroke-opacity:1"
     d="m 26.7106,2.1038728 a 4.2485569,4.2485569 0 0 1 0.03794,0.5582526 4.2485569,4.2485569 0 0 1 -4.248567,4.248567 4.2485569,4.2485569 0 0 1 -4.248538,-4.248567 4.2485569,4.2485569 0 0 1 0.03938,-0.5506887 5.4820089,5.4820089 0 0 0 -1.27283,3.5015857 A 5.4820089,5.4820089 0 0 0 22.5,11.095037 5.4820089,5.4820089 0 0 0 27.982014,5.6130224 5.4820089,5.4820089 0 0 0 26.710605,2.1038728 Z" />
</svg>
