<?xml version="1.0" encoding="UTF-8" standalone="no"?>
<svg
   version="1.1"
   viewBox="0 0 45 45"
   id="svg8"
   sodipodi:docname="Kin.svg"
   xml:space="preserve"
   inkscape:version="1.3.2 (091e20e, 2023-11-25, custom)"
   xmlns:inkscape="http://www.inkscape.org/namespaces/inkscape"
   xmlns:sodipodi="http://sodipodi.sourceforge.net/DTD/sodipodi-0.dtd"
   xmlns="http://www.w3.org/2000/svg"
   xmlns:svg="http://www.w3.org/2000/svg"><defs
     id="defs8"><linearGradient
       id="swatch13"
       inkscape:swatch="solid"><stop
         style="stop-color:#000000;stop-opacity:1;"
         offset="0"
         id="stop13" /></linearGradient></defs><sodipodi:namedview
     id="namedview8"
     pagecolor="#ffffff"
     bordercolor="#111111"
     borderopacity="1"
     inkscape:showpageshadow="0"
     inkscape:pageopacity="0"
     inkscape:pagecheckerboard="1"
     inkscape:deskcolor="#d1d1d1"
     inkscape:zoom="12.2"
     inkscape:cx="22.5"
     inkscape:cy="22.5"
     inkscape:window-width="1292"
     inkscape:window-height="745"
     inkscape:window-x="-8"
     inkscape:window-y="-8"
     inkscape:window-maximized="1"
     inkscape:current-layer="svg8" /><g
     style="display:inline;fill:#ffffff;stroke:#000000;stroke-width:1.5;stroke-linejoin:round"
     id="g8"><path
       d="m 9,26 c 8.5,-1.5 21,-1.5 27,0 L 38.5,13.5 31,25 30.7,10.9 25.5,24.5 22.5,10 19.5,24.5 14.3,10.9 14,25 6.5,13.5 Z"
       id="path1" /><path
       d="m 9,26 c 0,2 1.5,2 2.5,4 1,1.5 1,1 0.5,3.5 -1.5,1 -1,2.5 -1,2.5 -1.5,1.5 0,2.5 0,2.5 6.5,1 16.5,1 23,0 0,0 1.5,-1 0,-2.5 0,0 0.5,-1.5 -1,-2.5 -0.5,-2.5 -0.5,-2 0.5,-3.5 1,-2 2.5,-2 2.5,-4 -8.5,-1.5 -18.5,-1.5 -27,0 z"
       id="path2" /><path
       d="M 11.5,30 C 15,29 30,29 33.5,30"
       style="fill:none"
       id="path3" /><path
       d="m 12,33.5 c 6,-1 15,-1 21,0"
       style="fill:none"
       id="path4" /><circle
       cx="6"
       cy="12"
       r="2"
       id="circle4" /><circle
       cx="14"
       cy="9"
       r="2"
       id="circle5" /><circle
       cx="22.5"
       cy="8"
       r="2"
       id="circle6"
       style="display:inline" /><circle
       cx="31"
       cy="9"
       r="2"
       id="circle7" /><circle
       cx="39"
       cy="12"
       r="2"
       id="circle8" /><g
       id="g5"
       transform="matrix(0.05346703,0,0,0.05346703,16.885956,0.06014654)"
       style="display:inline;fill:#ffffff;stroke:#000000;stroke-width:1.5;stroke-linejoin:round"><path
         id="path4-6"
         style="display:inline;fill:#ffffff;fill-rule:evenodd;stroke:#000000;stroke-width:37.7953;stroke-linecap:round;stroke-linejoin:round;stroke-dasharray:none;stroke-opacity:1"
         inkscape:transform-center-x="1.291888e-06"
         inkscape:transform-center-y="-1.3582893e-06"
         d="M 387.42834 0.058937973 L 301.82846 143.92197 L 148.02479 77.927222 L 163.34993 244.70894 L 0.019822346 281.57211 L 110.47129 407.48679 L 0.019822346 533.53952 L 163.48799 570.4027 L 148.16285 737.18441 L 301.96652 671.0516 L 387.56641 548.86466 L 473.30436 671.0516 L 627.10802 737.04635 L 611.78288 570.26463 L 775.11299 533.40146 L 664.66152 407.48679 L 775.11299 281.43405 L 611.64482 244.57087 L 626.96996 77.789158 L 473.16629 143.92197 L 387.42834 0.058937973 z "
         transform="matrix(0.26458333,0,0,0.26458333,2.4565012,40.68578)" /><circle
         style="display:inline;opacity:1;fill:#ffffff;fill-rule:evenodd;stroke:#000000;stroke-width:0.951389;stroke-linecap:round;stroke-linejoin:round;stroke-dasharray:none;stroke-opacity:1"
         id="path2-8"
         cx="105.00001"
         cy="148.5"
         r="68.024307" /></g></g></svg>
