<?xml version="1.0" encoding="UTF-8" standalone="no"?>
<svg
   version="1.1"
   viewBox="0 0 45 45"
   id="svg8"
   sodipodi:docname="Narigin.svg"
   inkscape:version="1.3.2 (091e20e, 2023-11-25, custom)"
   xmlns:inkscape="http://www.inkscape.org/namespaces/inkscape"
   xmlns:sodipodi="http://sodipodi.sourceforge.net/DTD/sodipodi-0.dtd"
   xmlns="http://www.w3.org/2000/svg"
   xmlns:svg="http://www.w3.org/2000/svg">
  <defs
     id="defs8" />
  <sodipodi:namedview
     id="namedview8"
     pagecolor="#ffffff"
     bordercolor="#111111"
     borderopacity="1"
     inkscape:showpageshadow="0"
     inkscape:pageopacity="0"
     inkscape:pagecheckerboard="1"
     inkscape:deskcolor="#d1d1d1"
     inkscape:zoom="12.2"
     inkscape:cx="22.5"
     inkscape:cy="22.418033"
     inkscape:window-width="1292"
     inkscape:window-height="745"
     inkscape:window-x="-8"
     inkscape:window-y="-8"
     inkscape:window-maximized="1"
     inkscape:current-layer="g8" />
  <g
     style="fill:#ffffff;stroke:#ff0000;stroke-width:1.5;stroke-linejoin:round;stroke-opacity:1"
     id="g8">
    <path
       id="path1-2-3"
       style="display:inline;fill:#ff000f;fill-opacity:1;fill-rule:evenodd;stroke:#ff0000;stroke-width:0.294118;stroke-linecap:round;stroke-linejoin:round;stroke-dasharray:none;stroke-opacity:1;paint-order:markers fill stroke"
       d="m 20.972656,11.177968 1.529297,2.570313 1.527344,-2.570313 A 5.896789,5.8967837 0 0 1 22.5,11.386952 5.896789,5.8967837 0 0 1 20.972656,11.177968 Z" />
    <path
       id="path12"
       style="display:inline;fill:#ffffff;fill-opacity:1;fill-rule:evenodd;stroke:#ff0000;stroke-width:0.55;stroke-linecap:round;stroke-linejoin:round;stroke-dasharray:none;stroke-opacity:1;paint-order:normal"
       d="m 27.445312,2.2814835 a 5.8967888,5.8967836 0 0 1 0.94336,2.896484 l 1.96289,-2.240234 z m -9.890625,0.002 -2.908202,0.658203 1.978515,2.251953 a 5.8967888,5.8967836 0 0 1 0.929687,-2.910159 z M 28.375,5.7873865 a 5.8967888,5.8967836 0 0 1 -0.929688,2.9121102 l 2.908203,-0.6582032 z m -11.75,0.002 -1.976562,2.253907 2.908202,0.6582032 A 5.8967888,5.8967836 0 0 1 16.625,5.7893775 Z M 27.080078,9.1878247 A 5.8967888,5.8967836 0 0 1 24.597657,10.98665 l 2.755858,1.183594 z m -9.158204,0.002 -0.273436,2.9824213 2.75586,-1.185547 A 5.8967888,5.8967836 0 0 1 17.921874,9.1898087 Z" />
    <path
       d="m 9,26 c 8.5,-1.5 21,-1.5 27,0 L 38.5,13.5 31,25 30.7,10.9 25.5,24.5 22.5,10 19.5,24.5 14.3,10.9 14,25 6.5,13.5 Z"
       id="path1"
       style="stroke:#ff0000;stroke-opacity:1" />
    <path
       d="m 9,26 c 0,2 1.5,2 2.5,4 1,1.5 1,1 0.5,3.5 -1.5,1 -1,2.5 -1,2.5 -1.5,1.5 0,2.5 0,2.5 6.5,1 16.5,1 23,0 0,0 1.5,-1 0,-2.5 0,0 0.5,-1.5 -1,-2.5 -0.5,-2.5 -0.5,-2 0.5,-3.5 1,-2 2.5,-2 2.5,-4 -8.5,-1.5 -18.5,-1.5 -27,0 z"
       id="path2"
       style="stroke:#ff0000;stroke-opacity:1" />
    <path
       d="M 11.5,30 C 15,29 30,29 33.5,30"
       style="fill:none;stroke:#ff0000;stroke-opacity:1"
       id="path3" />
    <path
       d="m 12,33.5 c 6,-1 15,-1 21,0"
       style="fill:none;stroke:#ff0000;stroke-opacity:1"
       id="path4" />
    <circle
       cx="7"
       cy="14.5"
       r="2"
       id="circle4"
       style="stroke:#ff0000;stroke-opacity:1" />
    <circle
       cx="14.4"
       cy="11.5"
       r="2"
       id="circle5"
       style="stroke:#ff0000;stroke-opacity:1" />
    <circle
       cx="30.6"
       cy="11.5"
       r="2"
       id="circle7"
       style="stroke:#ff0000;stroke-opacity:1" />
    <circle
       cx="38"
       cy="14.5"
       r="2"
       id="circle8"
       style="stroke:#ff0000;stroke-opacity:1" />
    <path
       id="path1-8"
       style="display:inline;fill:#ffffff;fill-opacity:1;fill-rule:evenodd;stroke:#ff0000;stroke-width:0.982;stroke-linecap:round;stroke-linejoin:round;stroke-dasharray:none;stroke-opacity:1"
       d="m 26.802565,1.9068855 a 4.3413397,4.3413397 0 0 1 0.03876,0.570444 4.3413397,4.3413397 0 0 1 -4.34135,4.34135 4.3413397,4.3413397 0 0 1 -4.341323,-4.34135 4.3413397,4.3413397 0 0 1 0.04023,-0.562714 5.6017286,5.6017286 0 0 0 -1.300616,3.578055 A 5.6017286,5.6017286 0 0 0 22.5,11.094405 5.6017286,5.6017286 0 0 0 28.101734,5.4926705 5.6017286,5.6017286 0 0 0 26.802564,1.9068855 Z" />
  </g>
</svg>
