<?xml version="1.0" encoding="UTF-8" standalone="no"?>
<svg
   version="1.1"
   viewBox="0 0 45 45"
   id="svg8"
   sodipodi:docname="Narikyo.svg"
   inkscape:version="1.3.2 (091e20e, 2023-11-25, custom)"
   xmlns:inkscape="http://www.inkscape.org/namespaces/inkscape"
   xmlns:sodipodi="http://sodipodi.sourceforge.net/DTD/sodipodi-0.dtd"
   xmlns="http://www.w3.org/2000/svg"
   xmlns:svg="http://www.w3.org/2000/svg">
  <defs
     id="defs8" />
  <sodipodi:namedview
     id="namedview8"
     pagecolor="#ffffff"
     bordercolor="#111111"
     borderopacity="1"
     inkscape:showpageshadow="0"
     inkscape:pageopacity="0"
     inkscape:pagecheckerboard="1"
     inkscape:deskcolor="#d1d1d1"
     inkscape:zoom="12.2"
     inkscape:cx="22.5"
     inkscape:cy="22.5"
     inkscape:window-width="1292"
     inkscape:window-height="745"
     inkscape:window-x="-8"
     inkscape:window-y="-8"
     inkscape:window-maximized="1"
     inkscape:current-layer="g4" />
  <g
     id="g4"
     style="display:inline"
     transform="matrix(0.22544126,0,0,0.22544126,-1.1713433,-13.180064)">
    <g
       id="g5"
       style="display:inline"
       transform="matrix(0.19706934,0,0,0.19706934,84.307745,98.166268)">
      <path
         id="path1"
         style="display:inline;opacity:1;fill:#ffffff;fill-opacity:1;fill-rule:evenodd;stroke:#ff0000;stroke-width:20;stroke-linecap:round;stroke-linejoin:round;stroke-dasharray:none;stroke-opacity:1;paint-order:stroke fill markers"
         d="M 104.98048,40.685782 85.027688,74.244458 a 77,77 0 0 1 19.972422,-2.744536 77,77 0 0 1 19.88303,2.632398 z m 63.37546,20.579106 -35.75854,15.375289 a 77,77 0 0 1 32.20165,23.366533 z m -126.743689,0.02325 3.588927,38.933032 A 77,77 0 0 1 77.601785,76.74663 Z M 169.57136,106.58667 a 77,77 0 0 1 12.31295,37.82715 l 25.64701,-29.24886 z m -129.151802,0.0222 -37.9630571,8.59328 25.8206461,29.42559 a 77,77 0 0 1 12.142411,-38.01887 z m 141.303522,45.7631 a 77,77 0 0 1 -12.14242,38.01939 l 37.96306,-8.59379 z M 28.278697,152.39937 2.4689033,181.8353 40.438162,190.41565 A 77,77 0 0 1 28.278697,152.39938 Z m 136.520343,44.3792 a 77,77 0 0 1 -32.4006,23.47453 l 35.98901,15.45901 z m -119.580291,0.0233 -3.574459,38.93302 35.98385,-15.47192 a 77,77 0 0 1 -32.409391,-23.4611 z m 79.753271,25.95397 a 77,77 0 0 1 -19.97191,2.74401 77,77 0 0 1 -19.946067,-2.73833 L 105.01975,256.314 Z" />
      <circle
         style="display:inline;opacity:1;fill:#ffffff;fill-opacity:1;fill-rule:evenodd;stroke:#ff0000;stroke-width:3;stroke-linecap:round;stroke-linejoin:round;stroke-dasharray:none;stroke-opacity:1"
         id="path2"
         cx="105"
         cy="148.5"
         r="77" />
    </g>
    <path
       id="path16"
       style="display:inline;fill:#ffffff;fill-rule:evenodd;stroke:#ff0000;stroke-width:3;stroke-linecap:round;stroke-linejoin:round;stroke-dasharray:none;stroke-opacity:1"
       d="m 104.99979,70.385885 -10.499615,117.246585 -15.600081,15.11019 26.099696,6.69417 26.10022,-6.69417 -15.60008,-15.11019 z M 78.900094,215.74859 v 10.32857 l 51.926026,-0.14987 0.27389,-10.1787 z m 0,10.32857 h -7.400066 v 7.65069 h 67.000042 v -7.65069 z m 19.599837,-18.30741 v 7.97884 h 13.000239 v -7.97884 l -6.50038,1.66708 z" />
    <path
       style="display:inline;fill:#000000;fill-rule:evenodd;stroke:#ff0000;stroke-width:3;stroke-linecap:round;stroke-linejoin:round;stroke-dasharray:none;stroke-opacity:1"
       d="M 94.499998,187.63252 H 115.5 Z"
       id="path22" />
    <circle
       style="display:inline;opacity:1;fill:#ffffff;fill-opacity:1;fill-rule:evenodd;stroke:#ff0000;stroke-width:2.21787;stroke-linecap:round;stroke-linejoin:round;stroke-dasharray:none;stroke-opacity:1"
       id="circle3"
       cx="105.00002"
       cy="127.43106"
       r="15.174339" />
  </g>
</svg>
