<?xml version="1.0" encoding="UTF-8" standalone="no"?>
<svg
   id="svg2"
   sodipodi:docname="Ryu.svg"
   viewBox="0 0 45 45"
   version="1.1"
   inkscape:version="1.3.2 (091e20e, 2023-11-25, custom)"
   xmlns:inkscape="http://www.inkscape.org/namespaces/inkscape"
   xmlns:sodipodi="http://sodipodi.sourceforge.net/DTD/sodipodi-0.dtd"
   xmlns="http://www.w3.org/2000/svg"
   xmlns:svg="http://www.w3.org/2000/svg"
   xmlns:rdf="http://www.w3.org/1999/02/22-rdf-syntax-ns#"
   xmlns:cc="http://creativecommons.org/ns#"
   xmlns:dc="http://purl.org/dc/elements/1.1/">
  <defs
     id="defs1" />
  <sodipodi:namedview
     id="namedview10"
     bordercolor="#666666"
     inkscape:pageshadow="2"
     guidetolerance="10"
     pagecolor="#ffffff"
     gridtolerance="10"
     inkscape:window-maximized="1"
     inkscape:zoom="12.2"
     objecttolerance="10"
     borderopacity="1"
     inkscape:current-layer="g4"
     inkscape:cx="21.762295"
     inkscape:cy="22.5"
     inkscape:window-y="-8"
     inkscape:window-x="-8"
     inkscape:window-width="1292"
     showgrid="false"
     inkscape:pageopacity="0"
     inkscape:window-height="745"
     inkscape:showpageshadow="0"
     inkscape:pagecheckerboard="1"
     inkscape:deskcolor="#d1d1d1"
     showguides="true">
    <sodipodi:guide
       position="28.52459,4.95"
       orientation="0,1"
       id="guide1"
       inkscape:locked="false"
       inkscape:label=""
       inkscape:color="rgb(0,134,229)" />
  </sodipodi:namedview>
  <g
     id="g4"
     transform="matrix(0.18067593,0,0,0.18067593,3.1382976,3.2504341)">
    <path
       id="path6"
       inkscape:connector-curvature="0"
       class="fil0"
       d="m 202.84403,106.97631 c 2.8163,-6.22859 4.31599,-12.843731 2.64516,-18.125026 -2.18971,-6.921506 -8.34111,-11.935126 -14.85345,-15.139322 -4.52101,-2.224651 -26.31985,-9.335676 -24.02329,-13.300929 3.83656,-6.627075 -3.69951,-10.131383 -8.19202,-14.904471 -11.98326,-12.728234 -16.31647,-18.60051 -28.42293,-25.884787 -11.67717,-7.026323 -27.44791,-8.112036 -36.32514,-7.49651 23.67679,3.311227 44.22734,15.222099 35.37418,24.829876 -4.83296,5.246066 -15.17013,4.519177 -32.838928,-1.754561 C 77.569565,28.582746 53.06983,16.875349 41.523557,-5.418312 46.708888,21.090182 77.818854,37.233403 99.879588,45.956632 89.405552,48.678996 83.236825,50.416039 71.18716,56.567345 54.31243,52.261555 36.151788,51.534667 19.662063,68.532309 36.956446,60.05144 50.409451,59.263913 55.062226,65.726207 47.336734,71.375275 41.930699,76.199281 37.217287,82.886802 21.328169,87.829291 12.468263,92.895939 8.0994286,106.85811 14.881949,96.392749 23.026036,91.700499 30.401752,94.804609 c -2.89629,7.062211 -4.257953,14.840941 -3.923095,23.577651 -6.922374,5.66745 -11.771499,13.28553 -12.931324,31.45772 3.962558,-14.93142 9.372442,-20.719 14.215312,-20.17903 0.09385,0.51062 0.189518,1.02402 0.293469,1.54012 1.398528,6.95278 3.516435,12.82737 6.14043,18.24438 -5.93426,6.14775 -9.281389,14.39145 -7.330958,35.507 0.544684,-14.48674 4.264401,-25.28707 12.23928,-27.18033 3.912892,6.08788 10.115019,15.60229 14.658067,22.78358 2.923818,4.62226 4.32504,11.69739 4.004909,19.12604 h 99.456178 c 6.90486,-39.4302 -48.94172,-52.82064 -63.518934,-65.53251 -6.59387,-5.75032 -11.561674,-17.8122 -9.44415,-26.30059 2.695702,-10.811881 10.767601,-20.812361 20.538044,-24.405412 4.14476,3.599211 6.42552,5.252514 8.03744,10.494251 4.95163,16.106651 7.74763,23.824061 30.21512,36.949811 6.2645,3.65898 12.70513,1.54569 18.29058,0.77742 -3.49987,-0.83074 -6.53785,-0.96876 -10.03897,-1.79864 3.22662,-0.64499 5.76043,-3.59921 6.44583,-5.39882 -4.41802,2.61659 -9.75889,2.15477 -16.0258,-1.38371 3.20449,-0.68636 7.37225,-2.35536 9.75023,-3.64522 -4.60387,0.25574 -11.3942,-0.53361 -13.51365,-2.6957 -1.73617,-1.77111 -3.71056,-4.49627 -4.35545,-6.89475 3.66264,2.21455 8.1285,0.23919 11.17378,-0.008 -5.07127,-0.93287 -13.89095,-5.44571 -16.09317,-9.23539 -3.93686,-6.770481 -6.78252,-13.030463 -7.52499,-19.563983 8.37604,8.104625 17.32903,17.347322 25.2476,24.962703 9.27398,8.91796 20.64584,15.58401 31.4837,17.28765 8.70447,1.36811 10.79648,2.12253 16.95366,9.09832 -3.02882,-10.31233 -11.20169,-10.61552 -15.43962,-12.13148 6.25631,-0.30357 12.51167,0.30454 19.67755,4.85413 -6.76134,-8.49193 -13.81394,-7.67678 -20.88936,-7.58477 -7.30978,0.0956 -18.16834,-3.64704 -26.64036,-12.43468 -8.55912,-8.879241 -15.80634,-15.867937 -23.81828,-28.230417 9.18024,2.607439 17.93831,7.927137 20.89514,17.786226 0.92738,-5.291112 0.007,-10.272873 -2.76288,-14.948747 4.81736,-0.491361 12.52225,7.610568 19.80268,20.051987 0.0533,-4.42823 0.61553,-7.80289 -1.21266,-14.356814 7.77804,1.295346 12.2412,5.323354 16.68703,14.356814 1.95881,-3.5201 2.90274,-7.72936 -0.39279,-12.483769 8.96029,1.948602 11.14875,9.397279 14.53968,16.60522 0.92833,-3.910191 1.69006,-7.306021 2.43255,-9.103801 1.94408,-0.0607 5.06482,3.08311 5.11815,12.206551 z m -10.7705,-28.440248 c 1.54753,0.770971 4.04264,2.521873 4.43091,5.299486 -1.49419,-1.015737 -2.7647,-0.129747 -5.08051,-1.963425 -2.19423,-1.744357 -2.7187,-3.013139 -3.85398,-3.499784 1.52904,-0.384619 3.49795,-0.33861 4.50358,0.163723 z m -46.7395,-28.399825 c 4.40888,2.204341 5.12095,3.582559 8.17643,9.52885 -4.57625,-3.544925 -7.09812,-0.322055 -10.5443,-2.975408 -3.1833,-2.451031 -5.45579,-5.957264 -9.66552,-7.344723 4.35363,-1.086577 9.17099,-0.639394 12.0333,0.791281 z"
       style="fill:#ffffff;fill-opacity:1;stroke:#ff0000;stroke-width:7.99091;stroke-linecap:round;stroke-linejoin:round;stroke-dasharray:none;stroke-opacity:1;paint-order:stroke fill markers" />
  </g>
  <metadata
     id="metadata8">
    <rdf:RDF>
      <cc:Work>
        <dc:format>image/svg+xml</dc:format>
        <dc:type
           rdf:resource="http://purl.org/dc/dcmitype/StillImage" />
        <cc:license
           rdf:resource="http://creativecommons.org/publicdomain/zero/1.0/" />
        <dc:publisher>
          <cc:Agent
             rdf:about="http://openclipart.org/">
            <dc:title>Openclipart</dc:title>
          </cc:Agent>
        </dc:publisher>
      </cc:Work>
      <cc:License
         rdf:about="http://creativecommons.org/publicdomain/zero/1.0/">
        <cc:permits
           rdf:resource="http://creativecommons.org/ns#Reproduction" />
        <cc:permits
           rdf:resource="http://creativecommons.org/ns#Distribution" />
        <cc:permits
           rdf:resource="http://creativecommons.org/ns#DerivativeWorks" />
      </cc:License>
    </rdf:RDF>
  </metadata>
</svg>
