<?xml version="1.0" encoding="UTF-8" standalone="no"?>
<svg
   version="1.1"
   viewBox="0 0 45 45"
   id="svg1"
   sodipodi:docname="Tokin.svg"
   inkscape:version="1.3.2 (091e20e, 2023-11-25, custom)"
   xmlns:inkscape="http://www.inkscape.org/namespaces/inkscape"
   xmlns:sodipodi="http://sodipodi.sourceforge.net/DTD/sodipodi-0.dtd"
   xmlns="http://www.w3.org/2000/svg"
   xmlns:svg="http://www.w3.org/2000/svg">
  <defs
     id="defs1" />
  <sodipodi:namedview
     id="namedview1"
     pagecolor="#ffffff"
     bordercolor="#111111"
     borderopacity="1"
     inkscape:showpageshadow="0"
     inkscape:pageopacity="0"
     inkscape:pagecheckerboard="1"
     inkscape:deskcolor="#d1d1d1"
     inkscape:zoom="12.2"
     inkscape:cx="22.5"
     inkscape:cy="22.5"
     inkscape:window-width="1292"
     inkscape:window-height="745"
     inkscape:window-x="-8"
     inkscape:window-y="-8"
     inkscape:window-maximized="1"
     inkscape:current-layer="svg1" />
  <path
     id="path1-6"
     style="display:inline;fill:#ffffff;fill-rule:evenodd;stroke-width:2;stroke-linecap:round;stroke-linejoin:round;fill-opacity:1;stroke:#ff0000;stroke-opacity:1;stroke-dasharray:none;paint-order:stroke fill markers"
     d="M 22.498784,6.313 21.26321,8.3911167 A 4.7682151,4.7682151 0 0 1 22.5,8.2211618 4.7682151,4.7682151 0 0 1 23.731254,8.3841727 Z m 3.924517,1.2743585 -2.214342,0.9521129 a 4.7682151,4.7682151 0 0 1 1.994083,1.4469696 z m -7.848586,0.00144 0.222244,2.4109225 a 4.7682151,4.7682151 0 0 1 2.006403,-1.4536574 z m 7.923851,2.8051055 a 4.7682151,4.7682151 0 0 1 0.762478,2.342442 l 1.588188,-1.811232 z m -7.997708,0.0014 -2.350858,0.532137 1.59894,1.822176 a 4.7682151,4.7682151 0 0 1 0.751918,-2.354313 z m 8.750202,2.833874 a 4.7682151,4.7682151 0 0 1 -0.751918,2.354345 L 28.85,15.051334 Z m -9.502023,0.0017 -1.598269,1.822817 2.351242,0.531337 A 4.7682151,4.7682151 0 0 1 17.749037,13.23085 Z m 8.454004,2.748177 a 4.7682151,4.7682151 0 0 1 -2.006403,1.453657 l 2.228615,0.957297 z m -7.404994,0.0014 -0.221348,2.410922 2.228296,-0.958097 a 4.7682151,4.7682151 0 0 1 -2.006948,-1.452793 z m 4.938711,1.607196 A 4.7682151,4.7682151 0 0 1 22.5,17.757586 4.7682151,4.7682151 0 0 1 21.264842,17.588015 l 1.236374,2.077733 z" />
  <path
     d="m 22.5,9 c -2.21,0 -4,1.79 -4,4 0,0.89 0.29,1.71 0.78,2.38 C 17.33,16.5 16,18.59 16,21 c 0,2.03 0.94,3.84 2.41,5.03 C 15.41,27.09 11,31.58 11,39.5 H 34 C 34,31.58 29.59,27.09 26.59,26.03 28.06,24.84 29,23.03 29,21 29,18.59 27.67,16.5 25.72,15.38 26.21,14.71 26.5,13.89 26.5,13 c 0,-2.21 -1.79,-4 -4,-4 z"
     style="opacity:1;fill:#ffffff;fill-opacity:1;fill-rule:nonzero;stroke:#ff0000;stroke-width:1.5;stroke-linecap:round;stroke-linejoin:miter;stroke-miterlimit:4;stroke-dasharray:none;stroke-opacity:1"
     id="path1" />
</svg>
