<?xml version="1.0" encoding="UTF-8" standalone="no"?>
<svg
   version="1.1"
   viewBox="0 0 45 45"
   id="svg5"
   sodipodi:docname="Uma.svg"
   inkscape:version="1.3.2 (091e20e, 2023-11-25, custom)"
   xmlns:inkscape="http://www.inkscape.org/namespaces/inkscape"
   xmlns:sodipodi="http://sodipodi.sourceforge.net/DTD/sodipodi-0.dtd"
   xmlns="http://www.w3.org/2000/svg"
   xmlns:svg="http://www.w3.org/2000/svg">
  <defs
     id="defs5">
    <inkscape:path-effect
       effect="powerstroke"
       id="path-effect10"
       is_visible="true"
       lpeversion="1.3"
       scale_width="1"
       interpolator_type="CubicBezierJohan"
       interpolator_beta="0.2"
       start_linecap_type="zerowidth"
       end_linecap_type="zerowidth"
       offset_points="8,4.9921382"
       linejoin_type="extrp_arc"
       miter_limit="4"
       not_jump="false"
       sort_points="true"
       message="&lt;b&gt;Ctrl + click&lt;/b&gt; on existing node and move it" />
    <inkscape:path-effect
       effect="powerstroke"
       id="path-effect9"
       is_visible="true"
       lpeversion="1.3"
       scale_width="1"
       interpolator_type="CubicBezierJohan"
       interpolator_beta="0.2"
       start_linecap_type="zerowidth"
       end_linecap_type="zerowidth"
       offset_points="7,4.9921382"
       linejoin_type="extrp_arc"
       miter_limit="4"
       not_jump="false"
       sort_points="true"
       message="&lt;b&gt;Ctrl + click&lt;/b&gt; on existing node and move it" />
    <inkscape:path-effect
       effect="powerstroke"
       id="path-effect7"
       is_visible="true"
       lpeversion="1.3"
       scale_width="1"
       interpolator_type="CubicBezierJohan"
       interpolator_beta="0.2"
       start_linecap_type="zerowidth"
       end_linecap_type="zerowidth"
       offset_points="5,4.9921382"
       linejoin_type="extrp_arc"
       miter_limit="4"
       not_jump="false"
       sort_points="true"
       message="&lt;b&gt;Ctrl + click&lt;/b&gt; on existing node and move it" />
    <inkscape:path-effect
       effect="powerstroke"
       id="path-effect5"
       is_visible="true"
       lpeversion="1.3"
       scale_width="1"
       interpolator_type="CubicBezierJohan"
       interpolator_beta="0.2"
       start_linecap_type="zerowidth"
       end_linecap_type="zerowidth"
       offset_points="5,4.9921382"
       linejoin_type="extrp_arc"
       miter_limit="4"
       not_jump="false"
       sort_points="true"
       message="&lt;b&gt;Ctrl + click&lt;/b&gt; on existing node and move it" />
    <inkscape:path-effect
       effect="fill_between_many"
       method="bsplinespiro"
       autoreverse="false"
       close="false"
       join="false"
       linkedpaths="#path5,0,1"
       id="path-effect6" />
    <inkscape:path-effect
       effect="fill_between_many"
       method="bsplinespiro"
       autoreverse="false"
       close="false"
       join="false"
       linkedpaths="#path7,0,1"
       id="path-effect8" />
    <inkscape:path-effect
       effect="fill_between_many"
       method="bsplinespiro"
       autoreverse="false"
       close="false"
       join="false"
       linkedpaths="#path10,0,1"
       id="path-effect11" />
  </defs>
  <sodipodi:namedview
     id="namedview5"
     pagecolor="#ffffff"
     bordercolor="#111111"
     borderopacity="1"
     inkscape:showpageshadow="0"
     inkscape:pageopacity="0"
     inkscape:pagecheckerboard="1"
     inkscape:deskcolor="#d1d1d1"
     showguides="true"
     inkscape:zoom="12.2"
     inkscape:cx="22.5"
     inkscape:cy="22.5"
     inkscape:window-width="1292"
     inkscape:window-height="745"
     inkscape:window-x="-8"
     inkscape:window-y="-8"
     inkscape:window-maximized="1"
     inkscape:current-layer="svg5">
    <sodipodi:guide
       position="34.508197,4.95"
       orientation="0,-1"
       id="guide5"
       inkscape:locked="false" />
  </sodipodi:namedview>
  <g
     style="opacity:1;fill:none;fill-opacity:1;fill-rule:evenodd;stroke:#ff0000;stroke-width:1.5;stroke-linecap:round;stroke-linejoin:round;stroke-miterlimit:4;stroke-dasharray:none;stroke-opacity:1"
     transform="matrix(-0.59847424,0,0,0.59847424,44.891988,16.226641)"
     id="g5">
    <path
       d="m 22,10 c 10.5,1 16.5,8 16,29 H 15 c 0,-9 10,-6.5 8,-21"
       style="display:inline;fill:#ffffff;stroke:#ff0000;stroke-opacity:1"
       id="path1" />
    <path
       d="m 24,18 c 0.38,2.91 -5.55,7.37 -8,9 -3,2 -2.82,4.34 -5,4 -1.042,-0.94 1.41,-3.04 0,-3 -1,0 0.19,1.23 -1,2 -1,0 -4.003,1 -4,-4 0,-2 6,-12 6,-12 0,0 1.89,-1.9 2,-3.5 -0.73,-0.994 -0.5,-2 -0.5,-3 1,-1 3,2.5 3,2.5 h 2 c 0,0 0.78,-1.992 2.5,-3 1,0 1,3 1,3"
       style="display:inline;fill:#ffffff;stroke:#ff0000;stroke-opacity:1"
       id="path2" />
    <path
       d="m 9.5,25.5 a 0.5,0.5 0 1 1 -1,0 0.5,0.5 0 1 1 1,0 z"
       style="display:inline;fill:#ffffff;fill-opacity:1;stroke:#ff0000;stroke-opacity:1"
       id="path3" />
    <path
       d="m 15,15.5 a 0.5,1.5 0 1 1 -1,0 0.5,1.5 0 1 1 1,0 z"
       transform="matrix(0.866,0.5,-0.5,0.866,9.693,-5.173)"
       style="display:inline;fill:#ffffff;stroke:#ff0000;stroke-opacity:1"
       id="path4" />
    <g
       transform="matrix(-0.24404939,0,0,0.24404939,70.191293,-21.942028)"
       id="g2"
       style="display:inline;opacity:1;fill:#000000;fill-opacity:1;fill-rule:evenodd;stroke:#ff0000;stroke-width:1.5;stroke-linecap:round;stroke-linejoin:round;stroke-miterlimit:4;stroke-dasharray:none;stroke-opacity:1">
      <path
         d="m 5.0033622,52.605521 c 0,0 34.7610208,31.413219 38.9065308,51.820759 4.14551,20.40754 -1.217233,36.96101 -3.425803,42.50995 -2.20857,5.54894 -3.700746,9.10045 -3.700746,9.10045 0,0 27.68365,11.53457 40.547074,19.84545 14.513329,9.37686 14.325295,27.11233 14.119035,35.87946 -0.06361,2.70392 -0.19509,7.65791 -0.19509,7.65791 0,0 3.134176,-2.37926 4.497673,-3.22781 6.709964,-4.17582 13.897854,-5.03645 19.006074,-4.74958 5.1082,0.28688 8.13638,1.72104 11.3559,7.41092 3.21949,5.68988 7.05627,17.32813 8.3354,20.60804 1.27913,3.27991 1.81897,5.14488 1.81897,5.14488 0,0 3.70925,-9.99704 9.24547,-15.42539 2.36622,-2.32016 4.98402,-4.60006 7.09465,-6.07819 1.79597,-1.25777 4.07776,0.0368 4.30878,-2.11046 0.18797,-1.74713 -2.53473,-4.62246 -2.53473,-4.62246 -4.72512,-5.37297 -5.0961,-8.05369 -9.08316,-16.61087 -7.72918,-16.58862 -1.52762,-30.80909 6.29729,-44.89494 8.23562,-14.8252 21.27435,-29.37644 30.42605,-37.08559 9.1517,-7.70915 14.41588,-8.5756 20.60649,-7.63571 0.80736,0.12258 1.50641,0.22672 2.25154,0.33745 -0.0126,-0.013 -1.2931,-1.33655 -3.48867,-3.37292 -0.017,-0.0123 -0.0347,-0.0269 -0.0517,-0.0393 C 179.14122,90.907243 157.96953,79.625499 138.33031,71.672606 124.15889,66.605657 118.33132,65.494068 96.4507,60.625736 59.525902,52.410143 5.0033622,52.605521 5.0033622,52.605521 Z"
         fill="#ffffff"
         fill-rule="evenodd"
         stroke="#ff0000"
         stroke-linecap="round"
         stroke-linejoin="round"
         stroke-width="5"
         id="path1-4"
         style="display:inline;fill:#ffffff;fill-opacity:1" />
      <path
         d="m 36.070923,67.205179 c -0.0994,0.0084 -0.08737,0.03559 0.05064,0.0832 0.218978,0.07554 31.692151,8.48871 69.939917,18.6955 38.24778,10.20678 69.62722,18.565021 69.73063,18.573021 0.10341,0.008 0.16269,-0.007 0.13229,-0.0346 -0.0858,-0.0768 -7.14343,-2.678 -11.93312,-4.39766 C 123.83917,85.707569 83.023518,74.648341 49.39259,69.072248 42.913286,67.997962 36.76669,67.146119 36.070923,67.205179 Z M 172.84759,108.60834 c -0.068,-0.0631 -9.19517,0.89188 -13.32012,1.39371 -23.97613,2.91688 -45.18568,7.77673 -63.352722,14.51539 -16.200045,6.00913 -30.059468,13.82584 -38.55682,21.747 -1.39721,1.30237 -2.982763,2.93278 -2.982763,3.06699 0,0.0434 0.462668,-0.0875 1.028361,-0.29094 0.565683,-0.20345 27.171012,-9.37768 59.121974,-20.38687 31.95097,-11.00908 58.07909,-20.02958 58.06209,-20.04528 z m -1.57923,7.57576 c -0.0588,-0.0588 -5.71245,3.71799 -8.80308,5.88078 -22.09279,15.45976 -39.30697,32.13351 -50.27342,48.6947 -3.83043,5.7846 -6.541,10.76737 -8.75502,16.09463 -1.41833,3.41248 -2.79076,7.76912 -3.09387,9.8211 -0.0587,0.3971 -0.0441,0.55277 0.0439,0.46457 0.54556,-0.5471 70.91697,-80.92028 70.88147,-80.95578 z"
         fill="#ff0000"
         id="path2-9"
         style="display:inline;fill:#ff0000;fill-opacity:1;stroke:none" />
    </g>
  </g>
</svg>
